<svg width="32" height="32" viewBox="0 0 32 32" xmlns="http://www.w3.org/2000/svg" xmlns:serif="http://www.serif.com/">
  <g id="Icon">
    <g fill="#282fd7">
      <path d="m7 19c0-.552-.448-1-1-1h-2c-.796 0-1.559.316-2.121.879-.563.562-.879 1.325-.879 2.121v5c0 .796.316 1.559.879 2.121.562.563 1.325.879 2.121.879h2c.552 0 1-.448 1-1z"/>
      <path d="m31 21c0-.796-.316-1.559-.879-2.121-.562-.563-1.325-.879-2.121-.879-1 0-2 0-2 0-.552 0-1 .448-1 1v9c0 .552.448 1 1 1h2c.796 0 1.559-.316 2.121-.879.563-.562.879-1.325.879-2.121z"/>
      <path d="m19 15c0-.552-.448-1-1-1h-4c-.552 0-1 .448-1 1v4c0 .552.448 1 1 1h4c.552 0 1-.448 1-1z"/>
      <path d="m3 7v2c0 1.657 1.343 3 3 3h2c.552 0 1-.448 1-1v-6c0-.552-.448-1-1-1 0 0-1 0-2 0-1.657 0-3 1.343-3 3z"/>
      <path d="m29 7c0-1.657-1.343-3-3-3-1 0-2 0-2 0-.552 0-1 .448-1 1v6c0 .552.448 1 1 1h2c1.657 0 3-1.343 3-3z"/>
    </g>
    <path d="m25 3c0-1.657-1.343-3-3-3h-12c-1.657 0-3 1.343-3 3v10c0 1.657 1.343 3 3 3h12c1.657 0 3-1.343 3-3z" fill="#545af2"/>
    <g transform="translate(6, -3)">
      <path d="m15 18v-4c0-.552.448-1 1-1v-1 1c.552 0 1 .448 1 1v4c0 .552.448 1 1 1s1-.448 1-1c0 0 0-2.255 0-4 0-1.657-1.343-3-3-3v1c0-1 0-1 0-1-1.657 0-3 1.343-3 3v4c0 .552.448 1 1 1s1-.448 1-1z" fill="#fff"/>
    </g>
    <g transform="translate(6, -3)">
      <path d="m14 17h4c.552 0 1-.448 1-1s-.448-1-1-1h-4c-.552 0-1 .448-1 1s.448 1 1 1z" fill="#fff"/>
    </g>
    <g transform="translate(6, -3)">
      <path d="m21 12v6c0 .552.448 1 1 1s1-.448 1-1v-6c0-.552-.448-1-1-1s-1 .448-1 1z" fill="#fff"/>
    </g>
    <path d="m27 18h-22v11c0 .796.316 1.559.879 2.121.562.563 1.325.879 2.121.879h16c.796 0 1.559-.316 2.121-.879.563-.562.879-1.325.879-2.121 0-3.414 0-11 0-11z" fill="#545af2"/>
  </g>
</svg>